Coordinates
version=1
nRows=13
nColumns=40
inDegrees=yes

Units are S.I. units (second, meters, Newtons, ...)
If the header above contains a line with 'inDegrees', this indicates whether rotational values are in degrees (yes) or radians (no).

endheader
time	pelvis_tilt	pelvis_list	pelvis_rotation	pelvis_tx	pelvis_ty	pelvis_tz	hip_flexion_r	hip_adduction_r	hip_rotation_r	knee_angle_r	knee_angle_r_beta	ankle_angle_r	subtalar_angle_r	mtp_angle_r	hip_flexion_l	hip_adduction_l	hip_rotation_l	knee_angle_l	knee_angle_l_beta	ankle_angle_l	subtalar_angle_l	mtp_angle_l	lumbar_extension	lumbar_bending	lumbar_rotation	arm_flex_r	arm_add_r	arm_rot_r	elbow_flex_r	pro_sup_r	wrist_flex_r	wrist_dev_r	arm_flex_l	arm_add_l	arm_rot_l	elbow_flex_l	pro_sup_l	wrist_flex_l	wrist_dev_l
      0.00000000	     -1.76604620	      1.55586384	      5.46041074	      0.06992278	      1.31161091	     -0.00783552	     42.02292541	     -4.97106440	     -3.63346892	     53.76396308	      0.93835817	     -2.81832467	     -9.07377274	      0.00000000	     51.47141041	     -7.31589475	     -5.29744574	    101.83369919	      1.77733334	      3.06344107	    -11.49093869	      0.00000000	    -53.33347833	     -2.52584732	     -3.59982346	     54.26748050	     10.48811138	    -28.32525362	     31.31217001	     62.31957058	      0.00000000	      0.00000000	     59.96267138	     12.00638725	    -31.67942355	     28.81563500	      1.94862710	      0.00000000	      0.00000000
      0.01700000	     -1.76382661	      2.38531040	      6.09782885	      0.06889390	      1.31178187	     -0.00814521	     39.02933275	     -5.82237853	     -3.65933932	     51.25842554	      0.89462830	     -4.80677907	     -9.18356168	      0.00000000	     54.05788560	     -6.88780457	     -5.51465872	    104.30174156	      1.82040881	      3.41034439	    -11.12791883	      0.00000000	    -53.37020822	     -2.75835810	     -4.53299895	     53.97614420	     10.36227362	    -28.68582746	     31.42268684	     62.24843986	      0.00000000	      0.00000000	     59.77016417	     12.18728363	    -31.45260049	     28.80323856	      2.05407208	      0.00000000	      0.00000000
      0.03300000	     -1.55129900	      3.01327384	      7.06791650	      0.06810172	      1.31216164	     -0.00873432	     35.58846274	     -6.66066125	     -4.34166492	     48.45356234	      0.84567420	     -6.78700420	     -9.58692442	      0.00000000	     56.52505253	     -6.37989511	     -5.37225513	    106.69908768	      1.86225039	      3.63973853	    -10.59366762	      0.00000000	    -53.59111038	     -2.57263634	     -5.48317387	     53.71618450	     10.29677070	    -29.28344734	     31.48824934	     62.22062106	      0.00000000	      0.00000000	     59.55469076	     12.30006511	    -30.97110817	     28.75041829	      1.95686758	      0.00000000	      0.00000000
      0.05000000	     -1.55103092	      3.61590496	      7.61694297	      0.06747394	      1.31206300	     -0.00897672	     32.94444502	     -7.25812489	     -4.80106730	     46.70249147	      0.81511224	     -8.41758432	     -9.71334672	      0.00000000	     59.00749410	     -6.02620829	     -5.39710852	    108.23532525	      1.88906279	      4.04385033	    -10.35004622	      0.00000000	    -53.62165034	     -2.69786104	     -6.21487251	     53.46838472	     10.22439890	    -29.61489516	     31.55662680	     62.20946766	      0.00000000	      0.00000000	     59.40210581	     12.39386678	    -30.72961019	     28.68156836	      1.97143133	      0.00000000	      0.00000000
      0.06700000	     -1.62484974	      4.02233610	      7.79844453	      0.06707039	      1.31192696	     -0.00883377	     30.91933152	     -7.41488902	     -5.02582992	     46.31461080	      0.80834245	     -8.72283813	     -9.83613577	      0.00000000	     61.50005942	     -5.84631468	     -5.25372087	    108.67062221	      1.89666016	      4.56817233	    -10.40386596	      0.00000000	    -53.62740630	     -2.97640268	     -6.66121275	     53.34543189	     10.20098240	    -29.70927108	     31.58897646	     62.16995085	      0.00000000	      0.00000000	     59.39221393	     12.36010397	    -30.66210117	     28.55668634	      2.23741488	      0.00000000	      0.00000000
      0.08300000	     -1.61463611	      3.93679467	      8.42837254	      0.06688267	      1.31162482	     -0.00939958	     29.22106308	     -7.45475918	     -6.28851966	     47.07148281	      0.82155236	     -8.77048970	    -10.22479284	      0.00000000	     63.96915652	     -5.30625233	     -4.28270972	    108.35009728	      1.89106594	      5.12453348	    -10.72113657	      0.00000000	    -53.66150500	     -2.50936561	     -6.97343881	     53.26911037	     10.24831715	    -29.91692544	     31.64673463	     62.15802222	      0.00000000	      0.00000000	     59.47559274	     12.23834867	    -30.40310126	     28.29709620	      1.98083512	      0.00000000	      0.00000000
      0.10000000	     -1.44116901	      3.99504938	      8.24065737	      0.06712107	      1.31172712	     -0.00895544	     28.09343973	     -7.27515470	     -6.77079922	     48.74333377	      0.85073166	     -8.45677542	    -10.34965071	      0.00000000	     65.32995028	     -5.34891070	     -3.86881155	    106.90957837	      1.86592414	      5.42148034	    -10.89021951	      0.00000000	    -53.92484495	     -2.67521160	     -6.95767434	     53.30499971	     10.28694413	    -29.91054551	     31.69226745	     62.14467332	      0.00000000	      0.00000000	     59.48390893	     12.16484706	    -30.35558350	     28.32443342	      2.14587797	      0.00000000	      0.00000000
      0.11700000	     -1.35396155	      4.21257144	      8.05183137	      0.06769628	      1.31176145	     -0.00831153	     27.70006122	     -7.34113075	     -7.41940763	     51.49327524	      0.89872720	     -7.23644182	    -11.28523615	      0.00000000	     65.79042548	     -5.20381403	     -3.68444209	    104.21221923	      1.81884635	      5.68109287	    -10.94421804	      0.00000000	    -54.17516665	     -2.85242900	     -7.10037131	     53.42569053	     10.39159737	    -29.94991239	     31.68672414	     62.15110428	      0.00000000	      0.00000000	     59.50973596	     12.13509007	    -30.41286023	     28.42622129	      1.98907614	      0.00000000	      0.00000000
      0.13300000	     -1.17872142	      4.51537405	      7.50996315	      0.06848165	      1.31210749	     -0.00729596	     27.91954929	     -7.47011837	     -7.83369339	     55.24301763	      0.96417255	     -6.15260984	    -12.31353063	      0.00000000	     65.28307356	     -5.21865005	     -3.71823802	    100.43737948	      1.75296296	      5.68772886	    -10.93671555	      0.00000000	    -54.57896998	     -3.26099651	     -7.13340602	     53.64808894	     10.53874843	    -29.98367141	     31.71362210	     62.19397347	      0.00000000	      0.00000000	     59.51783482	     12.12704156	    -30.58332226	     28.67954205	      1.91114181	      0.00000000	      0.00000000
      0.15000000	     -0.87303173	      4.34981691	      6.96677240	      0.06925843	      1.31255062	     -0.00636648	     28.60026365	     -7.18900955	     -8.04997557	     59.72526767	      1.04240257	     -4.72440096	    -13.06323886	      0.00000000	     64.00659190	     -5.44393029	     -3.37929865	     96.05990353	      1.67656160	      5.54918031	    -10.84696904	      0.00000000	    -54.97508098	     -3.34942653	     -6.78988044	     53.89018378	     10.64732534	    -29.91219616	     31.68289413	     62.20074554	      0.00000000	      0.00000000	     59.51724986	     12.17274262	    -30.92455499	     28.96797527	      2.01961637	      0.00000000	      0.00000000
      0.16700000	     -0.57024508	      3.97099882	      6.39648209	      0.06981243	      1.31310387	     -0.00607810	     30.05884641	     -6.82084398	     -7.81707921	     65.11616366	      1.13649145	     -3.56158005	    -13.47610906	      0.00000000	     61.85797139	     -5.72200787	     -3.01168257	     90.79394771	      1.58465333	      5.40833116	    -10.61912300	      0.00000000	    -55.25869025	     -3.29822952	     -6.24761374	     54.15293743	     10.76803909	    -29.82849708	     31.60337875	     62.21822268	      0.00000000	      0.00000000	     59.50417612	     12.32533760	    -31.63126905	     29.22087417	      1.96371968	      0.00000000	      0.00000000
      0.18300000	     -0.23219425	      3.23387210	      5.80014071	      0.07029765	      1.31363677	     -0.00588750	     32.09593994	     -6.11505188	     -7.40519869	     71.16001083	      1.24197648	     -2.58464357	    -13.44445628	      0.00000000	     58.99300530	     -6.18959544	     -2.45322275	     84.76466005	      1.47942241	      5.05535738	    -10.41937720	      0.00000000	    -55.47760877	     -3.04063492	     -5.40194956	     54.41945597	     10.87349632	    -29.73266410	     31.50389661	     62.38833852	      0.00000000	      0.00000000	     59.46539884	     12.51308669	    -32.41123002	     29.51818398	      1.91427576	      0.00000000	      0.00000000
      0.20000000	      0.08249163	      2.24191950	      5.25957053	      0.07056739	      1.31408493	     -0.00589030	     34.41342713	     -5.15312350	     -7.01638370	     77.19724220	      1.34734605	     -1.52756485	    -13.14057135	      0.00000000	     55.80985656	     -6.77350019	     -1.87444947	     78.66939272	      1.37303992	      4.26512343	    -10.37991349	      0.00000000	    -55.59542855	     -2.53871697	     -4.36962243	     54.70542176	     10.93170879	    -29.48756134	     31.33357090	     62.34111797	      0.00000000	      0.00000000	     59.35745974	     12.62681780	    -33.18273447	     29.78484871	      2.06282574	      0.00000000	      0.00000000
